<svg width="172" height="39" viewBox="0 0 172 39" fill="none" xmlns="http://www.w3.org/2000/svg">
<path d="M156.88 27.98L158.44 23.49H159.65L157.55 29H156.19L154.1 23.49H155.32L156.88 27.98ZM160.872 29.07C160.665 29.07 160.492 29 160.352 28.86C160.212 28.72 160.142 28.5467 160.142 28.34C160.142 28.1333 160.212 27.96 160.352 27.82C160.492 27.68 160.665 27.61 160.872 27.61C161.072 27.61 161.242 27.68 161.382 27.82C161.522 27.96 161.592 28.1333 161.592 28.34C161.592 28.5467 161.522 28.72 161.382 28.86C161.242 29 161.072 29.07 160.872 29.07ZM162.574 25.26C162.574 24.1067 162.767 23.2067 163.154 22.56C163.547 21.9067 164.22 21.58 165.174 21.58C166.127 21.58 166.797 21.9067 167.184 22.56C167.577 23.2067 167.774 24.1067 167.774 25.26C167.774 26.4267 167.577 27.34 167.184 28C166.797 28.6533 166.127 28.98 165.174 28.98C164.22 28.98 163.547 28.6533 163.154 28C162.767 27.34 162.574 26.4267 162.574 25.26ZM166.654 25.26C166.654 24.72 166.617 24.2633 166.544 23.89C166.477 23.5167 166.337 23.2133 166.124 22.98C165.91 22.74 165.594 22.62 165.174 22.62C164.754 22.62 164.437 22.74 164.224 22.98C164.01 23.2133 163.867 23.5167 163.794 23.89C163.727 24.2633 163.694 24.72 163.694 25.26C163.694 25.82 163.727 26.29 163.794 26.67C163.86 27.05 164 27.3567 164.214 27.59C164.434 27.8233 164.754 27.94 165.174 27.94C165.594 27.94 165.91 27.8233 166.124 27.59C166.344 27.3567 166.487 27.05 166.554 26.67C166.62 26.29 166.654 25.82 166.654 25.26ZM168.73 22.75V21.71H170.81V29H169.66V22.75H168.73Z" fill="#838383"/>
<path d="M8.138 10.852C10.0447 10.852 11.7173 11.2247 13.156 11.97C14.612 12.7153 15.73 13.7813 16.51 15.168C17.3073 16.5373 17.706 18.132 17.706 19.952C17.706 21.772 17.3073 23.3667 16.51 24.736C15.73 26.088 14.612 27.1367 13.156 27.882C11.7173 28.6273 10.0447 29 8.138 29H1.794V10.852H8.138ZM8.008 25.906C9.91467 25.906 11.388 25.386 12.428 24.346C13.468 23.306 13.988 21.8413 13.988 19.952C13.988 18.0627 13.468 16.5893 12.428 15.532C11.388 14.4573 9.91467 13.92 8.008 13.92H5.434V25.906H8.008ZM19.7547 21.746C19.7547 20.29 20.0407 18.9987 20.6127 17.872C21.2021 16.7453 21.9907 15.8787 22.9787 15.272C23.9841 14.6653 25.1021 14.362 26.3327 14.362C27.4074 14.362 28.3434 14.5787 29.1407 15.012C29.9554 15.4453 30.6054 15.9913 31.0907 16.65V14.596H34.7567V29H31.0907V26.894C30.6227 27.57 29.9727 28.1333 29.1407 28.584C28.3261 29.0173 27.3814 29.234 26.3067 29.234C25.0934 29.234 23.9841 28.922 22.9787 28.298C21.9907 27.674 21.2021 26.7987 20.6127 25.672C20.0407 24.528 19.7547 23.2193 19.7547 21.746ZM31.0907 21.798C31.0907 20.914 30.9174 20.16 30.5707 19.536C30.2241 18.8947 29.7561 18.4093 29.1667 18.08C28.5774 17.7333 27.9447 17.56 27.2687 17.56C26.5927 17.56 25.9687 17.7247 25.3967 18.054C24.8247 18.3833 24.3567 18.8687 23.9927 19.51C23.6461 20.134 23.4727 20.8793 23.4727 21.746C23.4727 22.6127 23.6461 23.3753 23.9927 24.034C24.3567 24.6753 24.8247 25.1693 25.3967 25.516C25.9861 25.8627 26.6101 26.036 27.2687 26.036C27.9447 26.036 28.5774 25.8713 29.1667 25.542C29.7561 25.1953 30.2241 24.71 30.5707 24.086C30.9174 23.4447 31.0907 22.682 31.0907 21.798ZM44.0838 29.234C42.9051 29.234 41.8478 29.026 40.9118 28.61C39.9758 28.1767 39.2305 27.596 38.6758 26.868C38.1385 26.14 37.8438 25.334 37.7918 24.45H41.4578C41.5271 25.0047 41.7958 25.464 42.2638 25.828C42.7491 26.192 43.3471 26.374 44.0578 26.374C44.7511 26.374 45.2885 26.2353 45.6698 25.958C46.0685 25.6807 46.2678 25.3253 46.2678 24.892C46.2678 24.424 46.0251 24.0773 45.5398 23.852C45.0718 23.6093 44.3178 23.3493 43.2778 23.072C42.2031 22.812 41.3191 22.5433 40.6258 22.266C39.9498 21.9887 39.3605 21.564 38.8578 20.992C38.3725 20.42 38.1298 19.6487 38.1298 18.678C38.1298 17.8807 38.3551 17.1527 38.8058 16.494C39.2738 15.8353 39.9325 15.3153 40.7818 14.934C41.6485 14.5527 42.6625 14.362 43.8238 14.362C45.5398 14.362 46.9091 14.7953 47.9318 15.662C48.9545 16.5113 49.5178 17.664 49.6218 19.12H46.1378C46.0858 18.548 45.8431 18.0973 45.4098 17.768C44.9938 17.4213 44.4305 17.248 43.7198 17.248C43.0611 17.248 42.5498 17.3693 42.1858 17.612C41.8391 17.8547 41.6658 18.1927 41.6658 18.626C41.6658 19.1113 41.9085 19.484 42.3938 19.744C42.8791 19.9867 43.6331 20.238 44.6558 20.498C45.6958 20.758 46.5538 21.0267 47.2298 21.304C47.9058 21.5813 48.4865 22.0147 48.9718 22.604C49.4745 23.176 49.7345 23.9387 49.7518 24.892C49.7518 25.724 49.5178 26.4693 49.0498 27.128C48.5991 27.7867 47.9405 28.3067 47.0738 28.688C46.2245 29.052 45.2278 29.234 44.0838 29.234ZM61.1118 14.388C62.2038 14.388 63.1744 14.6307 64.0238 15.116C64.8731 15.584 65.5318 16.286 65.9998 17.222C66.4851 18.1407 66.7278 19.25 66.7278 20.55V29H63.0878V21.044C63.0878 19.9 62.8018 19.0247 62.2298 18.418C61.6578 17.794 60.8778 17.482 59.8898 17.482C58.8844 17.482 58.0871 17.794 57.4978 18.418C56.9258 19.0247 56.6398 19.9 56.6398 21.044V29H52.9998V9.76H56.6398V16.39C57.1078 15.766 57.7318 15.2807 58.5118 14.934C59.2918 14.57 60.1584 14.388 61.1118 14.388ZM74.0892 16.702C74.5572 16.0087 75.1986 15.4453 76.0132 15.012C76.8452 14.5787 77.7899 14.362 78.8472 14.362C80.0779 14.362 81.1872 14.6653 82.1752 15.272C83.1806 15.8787 83.9692 16.7453 84.5412 17.872C85.1306 18.9813 85.4252 20.2727 85.4252 21.746C85.4252 23.2193 85.1306 24.528 84.5412 25.672C83.9692 26.7987 83.1806 27.674 82.1752 28.298C81.1872 28.922 80.0779 29.234 78.8472 29.234C77.7726 29.234 76.8279 29.026 76.0132 28.61C75.2159 28.1767 74.5746 27.622 74.0892 26.946V29H70.4492V9.76H74.0892V16.702ZM81.7072 21.746C81.7072 20.8793 81.5252 20.134 81.1612 19.51C80.8146 18.8687 80.3466 18.3833 79.7572 18.054C79.1852 17.7247 78.5612 17.56 77.8852 17.56C77.2266 17.56 76.6026 17.7333 76.0132 18.08C75.4412 18.4093 74.9732 18.8947 74.6092 19.536C74.2626 20.1773 74.0892 20.9313 74.0892 21.798C74.0892 22.6647 74.2626 23.4187 74.6092 24.06C74.9732 24.7013 75.4412 25.1953 76.0132 25.542C76.6026 25.8713 77.2266 26.036 77.8852 26.036C78.5612 26.036 79.1852 25.8627 79.7572 25.516C80.3466 25.1693 80.8146 24.6753 81.1612 24.034C81.5252 23.3927 81.7072 22.63 81.7072 21.746ZM94.7263 29.234C93.3397 29.234 92.0917 28.9307 90.9823 28.324C89.873 27.7 88.9977 26.8247 88.3563 25.698C87.7323 24.5713 87.4203 23.2713 87.4203 21.798C87.4203 20.3247 87.741 19.0247 88.3823 17.898C89.041 16.7713 89.9337 15.9047 91.0603 15.298C92.187 14.674 93.4437 14.362 94.8303 14.362C96.217 14.362 97.4737 14.674 98.6003 15.298C99.727 15.9047 100.611 16.7713 101.252 17.898C101.911 19.0247 102.24 20.3247 102.24 21.798C102.24 23.2713 101.902 24.5713 101.226 25.698C100.568 26.8247 99.6663 27.7 98.5223 28.324C97.3957 28.9307 96.1303 29.234 94.7263 29.234ZM94.7263 26.062C95.385 26.062 96.0003 25.906 96.5723 25.594C97.1617 25.2647 97.6297 24.7793 97.9763 24.138C98.323 23.4967 98.4963 22.7167 98.4963 21.798C98.4963 20.4287 98.1323 19.38 97.4043 18.652C96.6937 17.9067 95.8183 17.534 94.7783 17.534C93.7383 17.534 92.863 17.9067 92.1523 18.652C91.459 19.38 91.1123 20.4287 91.1123 21.798C91.1123 23.1673 91.4503 24.2247 92.1263 24.97C92.8197 25.698 93.6863 26.062 94.7263 26.062ZM104.234 21.746C104.234 20.29 104.52 18.9987 105.092 17.872C105.682 16.7453 106.47 15.8787 107.458 15.272C108.464 14.6653 109.582 14.362 110.812 14.362C111.887 14.362 112.823 14.5787 113.62 15.012C114.435 15.4453 115.085 15.9913 115.57 16.65V14.596H119.236V29H115.57V26.894C115.102 27.57 114.452 28.1333 113.62 28.584C112.806 29.0173 111.861 29.234 110.786 29.234C109.573 29.234 108.464 28.922 107.458 28.298C106.47 27.674 105.682 26.7987 105.092 25.672C104.52 24.528 104.234 23.2193 104.234 21.746ZM115.57 21.798C115.57 20.914 115.397 20.16 115.05 19.536C114.704 18.8947 114.236 18.4093 113.646 18.08C113.057 17.7333 112.424 17.56 111.748 17.56C111.072 17.56 110.448 17.7247 109.876 18.054C109.304 18.3833 108.836 18.8687 108.472 19.51C108.126 20.134 107.952 20.8793 107.952 21.746C107.952 22.6127 108.126 23.3753 108.472 24.034C108.836 24.6753 109.304 25.1693 109.876 25.516C110.466 25.8627 111.09 26.036 111.748 26.036C112.424 26.036 113.057 25.8713 113.646 25.542C114.236 25.1953 114.704 24.71 115.05 24.086C115.397 23.4447 115.57 22.682 115.57 21.798ZM126.691 16.832C127.16 16.0693 127.766 15.4713 128.512 15.038C129.274 14.6047 130.141 14.388 131.111 14.388V18.21H130.149C129.006 18.21 128.139 18.4787 127.55 19.016C126.977 19.5533 126.691 20.4893 126.691 21.824V29H123.051V14.596H126.691V16.832ZM132.887 21.746C132.887 20.29 133.173 18.9987 133.745 17.872C134.335 16.7453 135.132 15.8787 136.137 15.272C137.143 14.6653 138.261 14.362 139.491 14.362C140.427 14.362 141.32 14.57 142.169 14.986C143.019 15.3847 143.695 15.922 144.197 16.598V9.76H147.889V29H144.197V26.868C143.747 27.5787 143.114 28.1507 142.299 28.584C141.485 29.0173 140.54 29.234 139.465 29.234C138.252 29.234 137.143 28.922 136.137 28.298C135.132 27.674 134.335 26.7987 133.745 25.672C133.173 24.528 132.887 23.2193 132.887 21.746ZM144.223 21.798C144.223 20.914 144.05 20.16 143.703 19.536C143.357 18.8947 142.889 18.4093 142.299 18.08C141.71 17.7333 141.077 17.56 140.401 17.56C139.725 17.56 139.101 17.7247 138.529 18.054C137.957 18.3833 137.489 18.8687 137.125 19.51C136.779 20.134 136.605 20.8793 136.605 21.746C136.605 22.6127 136.779 23.3753 137.125 24.034C137.489 24.6753 137.957 25.1693 138.529 25.516C139.119 25.8627 139.743 26.036 140.401 26.036C141.077 26.036 141.71 25.8713 142.299 25.542C142.889 25.1953 143.357 24.71 143.703 24.086C144.05 23.4447 144.223 22.682 144.223 21.798Z" fill="black"/>
</svg>
